<svg width="1200" height="760" viewBox="0 0 1200 760" fill="none" xmlns="http://www.w3.org/2000/svg" role="img" aria-labelledby="title desc">
  <title id="title">KAOS Control Room dashboard visual</title>
  <desc id="desc">A safe public dashboard visual showing runtime, safety, approvals, memory, tool audit, jobs, and swarm coordination.</desc>
  <rect width="1200" height="760" rx="22" fill="#0D1117"/>
  <rect x="24" y="24" width="1152" height="712" rx="18" fill="#111827" stroke="#243244"/>
  <rect x="24" y="24" width="1152" height="64" rx="18" fill="#151F2E"/>
  <circle cx="58" cy="56" r="7" fill="#EF4444"/>
  <circle cx="82" cy="56" r="7" fill="#F59E0B"/>
  <circle cx="106" cy="56" r="7" fill="#22C55E"/>
  <text x="142" y="62" fill="#E5E7EB" font-family="Inter, Arial, sans-serif" font-size="22" font-weight="700">Kronos Agent OS</text>
  <text x="352" y="62" fill="#94A3B8" font-family="Inter, Arial, sans-serif" font-size="14">KAOS Control Room</text>
  <rect x="980" y="42" width="156" height="28" rx="14" fill="#12352C" stroke="#2DD4BF"/>
  <text x="1002" y="61" fill="#A7F3D0" font-family="Inter, Arial, sans-serif" font-size="13" font-weight="700">LOCAL SAFE MODE</text>

  <rect x="54" y="120" width="240" height="94" rx="10" fill="#172033" stroke="#2B3A52"/>
  <text x="78" y="151" fill="#94A3B8" font-family="Inter, Arial, sans-serif" font-size="13" font-weight="700">RUNTIME</text>
  <text x="78" y="181" fill="#F8FAFC" font-family="Inter, Arial, sans-serif" font-size="31" font-weight="800">Healthy</text>
  <text x="78" y="202" fill="#93C5FD" font-family="Inter, Arial, sans-serif" font-size="12">CLI + Dashboard + Cron ready</text>

  <rect x="318" y="120" width="240" height="94" rx="10" fill="#172033" stroke="#2B3A52"/>
  <text x="342" y="151" fill="#94A3B8" font-family="Inter, Arial, sans-serif" font-size="13" font-weight="700">SAFETY</text>
  <text x="342" y="181" fill="#F8FAFC" font-family="Inter, Arial, sans-serif" font-size="31" font-weight="800">5 gates</text>
  <text x="342" y="202" fill="#A7F3D0" font-family="Inter, Arial, sans-serif" font-size="12">Dynamic tools blocked by default</text>

  <rect x="582" y="120" width="240" height="94" rx="10" fill="#172033" stroke="#2B3A52"/>
  <text x="606" y="151" fill="#94A3B8" font-family="Inter, Arial, sans-serif" font-size="13" font-weight="700">APPROVALS</text>
  <text x="606" y="181" fill="#F8FAFC" font-family="Inter, Arial, sans-serif" font-size="31" font-weight="800">1 pending</text>
  <text x="606" y="202" fill="#FDE68A" font-family="Inter, Arial, sans-serif" font-size="12">Server ops requires restart opt-in</text>

  <rect x="846" y="120" width="300" height="94" rx="10" fill="#172033" stroke="#2B3A52"/>
  <text x="870" y="151" fill="#94A3B8" font-family="Inter, Arial, sans-serif" font-size="13" font-weight="700">COORDINATION</text>
  <text x="870" y="181" fill="#F8FAFC" font-family="Inter, Arial, sans-serif" font-size="31" font-weight="800">4 agents</text>
  <text x="870" y="202" fill="#C4B5FD" font-family="Inter, Arial, sans-serif" font-size="12">Optional swarm arbitration visible</text>

  <rect x="54" y="246" width="520" height="202" rx="12" fill="#121B2B" stroke="#26364E"/>
  <text x="78" y="281" fill="#F8FAFC" font-family="Inter, Arial, sans-serif" font-size="20" font-weight="800">Tool Audit</text>
  <text x="78" y="306" fill="#94A3B8" font-family="Inter, Arial, sans-serif" font-size="13">Every call is inspectable and redacted before persistence.</text>
  <rect x="78" y="330" width="448" height="34" rx="7" fill="#18243A"/>
  <text x="96" y="352" fill="#E5E7EB" font-family="Inter, Arial, sans-serif" font-size="13">load_skill</text>
  <text x="250" y="352" fill="#A7F3D0" font-family="Inter, Arial, sans-serif" font-size="13">ok</text>
  <text x="342" y="352" fill="#93C5FD" font-family="Inter, Arial, sans-serif" font-size="13">skills</text>
  <rect x="78" y="376" width="448" height="34" rx="7" fill="#18243A"/>
  <text x="96" y="398" fill="#E5E7EB" font-family="Inter, Arial, sans-serif" font-size="13">mcp_add_server</text>
  <text x="250" y="398" fill="#FCA5A5" font-family="Inter, Arial, sans-serif" font-size="13">blocked</text>
  <text x="342" y="398" fill="#FDE68A" font-family="Inter, Arial, sans-serif" font-size="13">approval required</text>

  <rect x="626" y="246" width="520" height="202" rx="12" fill="#121B2B" stroke="#26364E"/>
  <text x="650" y="281" fill="#F8FAFC" font-family="Inter, Arial, sans-serif" font-size="20" font-weight="800">Memory Plane</text>
  <text x="650" y="306" fill="#94A3B8" font-family="Inter, Arial, sans-serif" font-size="13">Sessions, facts, shared facts, and graph records in one inspector.</text>
  <rect x="650" y="330" width="138" height="72" rx="8" fill="#172033" stroke="#2B3A52"/>
  <text x="672" y="360" fill="#F8FAFC" font-family="Inter, Arial, sans-serif" font-size="28" font-weight="800">3</text>
  <text x="672" y="385" fill="#93C5FD" font-family="Inter, Arial, sans-serif" font-size="13">facts</text>
  <rect x="812" y="330" width="138" height="72" rx="8" fill="#172033" stroke="#2B3A52"/>
  <text x="834" y="360" fill="#F8FAFC" font-family="Inter, Arial, sans-serif" font-size="28" font-weight="800">2</text>
  <text x="834" y="385" fill="#C4B5FD" font-family="Inter, Arial, sans-serif" font-size="13">graph nodes</text>
  <rect x="974" y="330" width="138" height="72" rx="8" fill="#172033" stroke="#2B3A52"/>
  <text x="996" y="360" fill="#F8FAFC" font-family="Inter, Arial, sans-serif" font-size="28" font-weight="800">1</text>
  <text x="996" y="385" fill="#A7F3D0" font-family="Inter, Arial, sans-serif" font-size="13">session</text>

  <rect x="54" y="480" width="344" height="210" rx="12" fill="#121B2B" stroke="#26364E"/>
  <text x="78" y="515" fill="#F8FAFC" font-family="Inter, Arial, sans-serif" font-size="20" font-weight="800">Scheduled Jobs</text>
  <rect x="78" y="540" width="272" height="36" rx="7" fill="#18243A"/>
  <text x="96" y="563" fill="#E5E7EB" font-family="Inter, Arial, sans-serif" font-size="13">heartbeat</text>
  <text x="285" y="563" fill="#A7F3D0" font-family="Inter, Arial, sans-serif" font-size="13">ok</text>
  <rect x="78" y="588" width="272" height="36" rx="7" fill="#18243A"/>
  <text x="96" y="611" fill="#E5E7EB" font-family="Inter, Arial, sans-serif" font-size="13">daily-brief</text>
  <text x="270" y="611" fill="#FCA5A5" font-family="Inter, Arial, sans-serif" font-size="13">paused</text>

  <rect x="428" y="480" width="718" height="210" rx="12" fill="#121B2B" stroke="#26364E"/>
  <text x="452" y="515" fill="#F8FAFC" font-family="Inter, Arial, sans-serif" font-size="20" font-weight="800">Swarm Arbitration</text>
  <text x="452" y="540" fill="#94A3B8" font-family="Inter, Arial, sans-serif" font-size="13">Optional specialists produce one synthesized result.</text>
  <circle cx="520" cy="610" r="34" fill="#172033" stroke="#60A5FA"/>
  <circle cx="670" cy="610" r="34" fill="#172033" stroke="#FDE68A"/>
  <circle cx="820" cy="610" r="34" fill="#172033" stroke="#A7F3D0"/>
  <circle cx="970" cy="610" r="34" fill="#172033" stroke="#C4B5FD"/>
  <path d="M554 610H636" stroke="#334155" stroke-width="4"/>
  <path d="M704 610H786" stroke="#334155" stroke-width="4"/>
  <path d="M854 610H936" stroke="#334155" stroke-width="4"/>
  <text x="493" y="615" fill="#E5E7EB" font-family="Inter, Arial, sans-serif" font-size="12">research</text>
  <text x="651" y="615" fill="#E5E7EB" font-family="Inter, Arial, sans-serif" font-size="12">critic</text>
  <text x="794" y="615" fill="#E5E7EB" font-family="Inter, Arial, sans-serif" font-size="12">ops</text>
  <text x="940" y="615" fill="#E5E7EB" font-family="Inter, Arial, sans-serif" font-size="12">synth</text>
  <rect x="1008" y="646" width="96" height="28" rx="14" fill="#312E81" stroke="#8B5CF6"/>
  <text x="1032" y="665" fill="#DDD6FE" font-family="Inter, Arial, sans-serif" font-size="13" font-weight="700">winner</text>
</svg>
